<mxfile host="app.diagrams.net" modified="2023-06-05T13:09:22.961Z" agent="Mozilla/5.0 (X11; Linux x86_64; rv:109.0) Gecko/20100101 Firefox/113.0" etag="oL2Qr2-73gSgo9d_UtpE" version="21.3.7" type="device">
  <diagram name="Page-1" id="56QPCwbd0cLktFSz25ie">
    <mxGraphModel dx="6570" dy="5232" grid="1" gridSize="10" guides="1" tooltips="1" connect="1" arrows="1" fold="1" page="1" pageScale="1" pageWidth="850" pageHeight="1100" math="0" shadow="0">
      <root>
        <mxCell id="0" />
        <mxCell id="1" parent="0" />
        <mxCell id="g8BdZ8r_Pw-MX2T4Fr7M-47" value="" style="rounded=0;whiteSpace=wrap;html=1;strokeWidth=6;fillColor=none;" parent="1" vertex="1">
          <mxGeometry x="-110" y="580" width="1520" height="1230" as="geometry" />
        </mxCell>
        <mxCell id="C5OK1jKq3YbDkTMviwv4-5" value="" style="rounded=0;whiteSpace=wrap;html=1;fillColor=none;strokeWidth=6;" vertex="1" parent="1">
          <mxGeometry x="1530" y="570" width="1560" height="1250" as="geometry" />
        </mxCell>
        <mxCell id="Qk9qD6PRYy8a2zJd2hO1-60" value="" style="shape=cube;whiteSpace=wrap;html=1;boundedLbl=1;backgroundOutline=1;darkOpacity=0.05;darkOpacity2=0.1;fillColor=none;strokeWidth=4;" parent="1" vertex="1">
          <mxGeometry x="730" y="-1235" width="1840" height="1150" as="geometry" />
        </mxCell>
        <mxCell id="k2swmo7qzIprsYgqh0As-2" value="&lt;font style=&quot;font-size: 50px;&quot;&gt;Resource Storage 1&lt;br&gt;&lt;/font&gt;" style="swimlane;whiteSpace=wrap;html=1;startSize=60;strokeWidth=4;fillColor=#e1d5e7;strokeColor=#9673a6;fontSize=60;" parent="1" vertex="1">
          <mxGeometry x="10" y="870" width="570" height="840" as="geometry" />
        </mxCell>
        <mxCell id="k2swmo7qzIprsYgqh0As-3" value="&lt;font style=&quot;font-size: 50px;&quot;&gt;Resource Manager 1&lt;br style=&quot;font-size: 50px;&quot;&gt;&lt;/font&gt;" style="swimlane;whiteSpace=wrap;html=1;startSize=60;strokeWidth=4;fillColor=#e1d5e7;strokeColor=#9673a6;fontSize=50;" parent="1" vertex="1">
          <mxGeometry x="-10" y="780" width="640" height="950" as="geometry" />
        </mxCell>
        <mxCell id="k2swmo7qzIprsYgqh0As-4" value="&lt;font style=&quot;font-size: 60px;&quot;&gt;Sub-Controller Manager 1 (SCM 1)&lt;br style=&quot;font-size: 60px;&quot;&gt;&lt;/font&gt;" style="swimlane;whiteSpace=wrap;html=1;startSize=60;strokeWidth=10;fillColor=#ffe6cc;strokeColor=#d79b00;fontSize=60;" parent="1" vertex="1">
          <mxGeometry x="-60" y="620" width="1440" height="1140" as="geometry" />
        </mxCell>
        <mxCell id="k2swmo7qzIprsYgqh0As-7" value="" style="rounded=0;whiteSpace=wrap;html=1;rotation=-30;" parent="k2swmo7qzIprsYgqh0As-4" vertex="1">
          <mxGeometry x="320" y="820" width="30" height="10" as="geometry" />
        </mxCell>
        <mxCell id="k2swmo7qzIprsYgqh0As-8" value="" style="rounded=0;whiteSpace=wrap;html=1;rotation=-30;" parent="k2swmo7qzIprsYgqh0As-4" vertex="1">
          <mxGeometry x="300" y="790" width="30" height="10" as="geometry" />
        </mxCell>
        <mxCell id="k2swmo7qzIprsYgqh0As-9" value="" style="shape=cylinder3;whiteSpace=wrap;html=1;boundedLbl=1;backgroundOutline=1;size=15;" parent="k2swmo7qzIprsYgqh0As-4" vertex="1">
          <mxGeometry x="161.25" y="970" width="67.5" height="40" as="geometry" />
        </mxCell>
        <mxCell id="k2swmo7qzIprsYgqh0As-10" value="" style="rounded=0;whiteSpace=wrap;html=1;rotation=-30;direction=south;" parent="k2swmo7qzIprsYgqh0As-4" vertex="1">
          <mxGeometry x="220" y="830" width="100" height="20" as="geometry" />
        </mxCell>
        <mxCell id="k2swmo7qzIprsYgqh0As-11" value="" style="rounded=0;whiteSpace=wrap;html=1;rotation=15;" parent="k2swmo7qzIprsYgqh0As-4" vertex="1">
          <mxGeometry x="200" y="860" width="20" height="110" as="geometry" />
        </mxCell>
        <mxCell id="k2swmo7qzIprsYgqh0As-12" value="" style="ellipse;whiteSpace=wrap;html=1;aspect=fixed;" parent="k2swmo7qzIprsYgqh0As-4" vertex="1">
          <mxGeometry x="180" y="960" width="30" height="30" as="geometry" />
        </mxCell>
        <mxCell id="k2swmo7qzIprsYgqh0As-13" value="" style="ellipse;whiteSpace=wrap;html=1;aspect=fixed;" parent="k2swmo7qzIprsYgqh0As-4" vertex="1">
          <mxGeometry x="210" y="850" width="30" height="30" as="geometry" />
        </mxCell>
        <mxCell id="k2swmo7qzIprsYgqh0As-14" value="" style="rounded=0;whiteSpace=wrap;html=1;rotation=60;" parent="k2swmo7qzIprsYgqh0As-4" vertex="1">
          <mxGeometry x="290" y="810" width="50" height="10" as="geometry" />
        </mxCell>
        <mxCell id="k2swmo7qzIprsYgqh0As-15" value="" style="endArrow=classic;startArrow=classic;html=1;rounded=1;" parent="k2swmo7qzIprsYgqh0As-4" edge="1">
          <mxGeometry width="50" height="50" relative="1" as="geometry">
            <mxPoint x="200" y="860" as="sourcePoint" />
            <mxPoint x="220" y="840" as="targetPoint" />
            <Array as="points">
              <mxPoint x="200" y="840" />
            </Array>
          </mxGeometry>
        </mxCell>
        <mxCell id="k2swmo7qzIprsYgqh0As-16" value="" style="endArrow=classic;startArrow=classic;html=1;rounded=1;" parent="k2swmo7qzIprsYgqh0As-4" edge="1">
          <mxGeometry width="50" height="50" relative="1" as="geometry">
            <mxPoint x="158.75" y="970" as="sourcePoint" />
            <mxPoint x="168.75" y="940" as="targetPoint" />
            <Array as="points">
              <mxPoint x="150" y="950" />
            </Array>
          </mxGeometry>
        </mxCell>
        <mxCell id="k2swmo7qzIprsYgqh0As-17" value="" style="endArrow=classic;startArrow=classic;html=1;rounded=1;" parent="k2swmo7qzIprsYgqh0As-4" edge="1">
          <mxGeometry width="50" height="50" relative="1" as="geometry">
            <mxPoint x="150" y="1000" as="sourcePoint" />
            <mxPoint x="150" y="980" as="targetPoint" />
            <Array as="points">
              <mxPoint x="140" y="990" />
            </Array>
          </mxGeometry>
        </mxCell>
        <mxCell id="k2swmo7qzIprsYgqh0As-18" value="" style="endArrow=classic;startArrow=classic;html=1;rounded=0;" parent="k2swmo7qzIprsYgqh0As-4" edge="1">
          <mxGeometry width="50" height="50" relative="1" as="geometry">
            <mxPoint x="360" y="810" as="sourcePoint" />
            <mxPoint x="340" y="775" as="targetPoint" />
          </mxGeometry>
        </mxCell>
        <mxCell id="k2swmo7qzIprsYgqh0As-27" style="edgeStyle=orthogonalEdgeStyle;rounded=0;orthogonalLoop=1;jettySize=auto;html=1;exitX=1;exitY=0.5;exitDx=0;exitDy=0;entryX=0.38;entryY=1.036;entryDx=0;entryDy=0;entryPerimeter=0;strokeWidth=6;" parent="k2swmo7qzIprsYgqh0As-4" source="k2swmo7qzIprsYgqh0As-19" target="k2swmo7qzIprsYgqh0As-25" edge="1">
          <mxGeometry relative="1" as="geometry">
            <Array as="points">
              <mxPoint x="420" y="845" />
              <mxPoint x="420" y="590" />
              <mxPoint x="266" y="590" />
            </Array>
          </mxGeometry>
        </mxCell>
        <mxCell id="k2swmo7qzIprsYgqh0As-19" value="&lt;font size=&quot;1&quot;&gt;&lt;b style=&quot;font-size: 45px;&quot;&gt;System 1&lt;/b&gt;&lt;/font&gt;" style="swimlane;whiteSpace=wrap;html=1;startSize=60;" parent="k2swmo7qzIprsYgqh0As-4" vertex="1">
          <mxGeometry x="80" y="670" width="310" height="350" as="geometry" />
        </mxCell>
        <mxCell id="6xcx7gfBlVFDdk0v4jd5-2" value="&lt;font style=&quot;font-size: 45px;&quot;&gt;Robot 1&lt;br&gt;&lt;/font&gt;" style="text;html=1;strokeColor=none;fillColor=none;align=center;verticalAlign=middle;whiteSpace=wrap;rounded=0;" parent="k2swmo7qzIprsYgqh0As-19" vertex="1">
          <mxGeometry x="60" y="80" width="190" height="30" as="geometry" />
        </mxCell>
        <mxCell id="k2swmo7qzIprsYgqh0As-25" value="&lt;div style=&quot;font-size: 50px;&quot;&gt;&lt;font style=&quot;font-size: 50px;&quot;&gt;&lt;b&gt;&lt;font style=&quot;font-size: 50px;&quot;&gt;Command-&lt;/font&gt;&lt;/b&gt;&lt;/font&gt;&lt;/div&gt;&lt;div style=&quot;font-size: 50px;&quot;&gt;&lt;font style=&quot;font-size: 50px;&quot;&gt;&lt;b&gt;&lt;font style=&quot;font-size: 50px;&quot;&gt;/Stateinterfaces&lt;/font&gt;&lt;/b&gt;&lt;/font&gt;&lt;/div&gt;" style="rounded=1;whiteSpace=wrap;html=1;" parent="k2swmo7qzIprsYgqh0As-4" vertex="1">
          <mxGeometry x="110" y="330" width="410" height="160" as="geometry" />
        </mxCell>
        <mxCell id="k2swmo7qzIprsYgqh0As-28" value="&lt;font size=&quot;1&quot;&gt;&lt;i style=&quot;font-size: 45px;&quot;&gt;Export&lt;/i&gt;&lt;/font&gt;" style="text;html=1;align=center;verticalAlign=middle;resizable=0;points=[];autosize=1;strokeColor=none;fillColor=none;strokeWidth=6;" parent="k2swmo7qzIprsYgqh0As-4" vertex="1">
          <mxGeometry x="440" y="670" width="150" height="70" as="geometry" />
        </mxCell>
        <mxCell id="aH2ZuujqSojjc6NItEgd-41" value="&lt;font style=&quot;font-size: 45px;&quot;&gt;&lt;i&gt;Exported by&lt;br&gt;SCM 1&lt;br&gt;&lt;/i&gt;&lt;/font&gt;" style="edgeLabel;html=1;align=center;verticalAlign=middle;resizable=0;points=[];labelBackgroundColor=none;" parent="k2swmo7qzIprsYgqh0As-4" vertex="1" connectable="0">
          <mxGeometry x="979.9985714285722" y="240" as="geometry">
            <mxPoint x="-46" as="offset" />
          </mxGeometry>
        </mxCell>
        <mxCell id="aH2ZuujqSojjc6NItEgd-2" value="" style="ellipse;whiteSpace=wrap;html=1;aspect=fixed;fillColor=#e1d5e7;strokeColor=#9673a6;" parent="k2swmo7qzIprsYgqh0As-4" vertex="1">
          <mxGeometry x="680" y="360" width="30" height="30" as="geometry" />
        </mxCell>
        <mxCell id="k2swmo7qzIprsYgqh0As-41" value="" style="endArrow=none;dashed=1;html=1;dashPattern=1 1;strokeWidth=6;rounded=0;entryX=1;entryY=0.5;entryDx=0;entryDy=0;jumpSize=2;jumpStyle=none;targetPerimeterSpacing=0;" parent="k2swmo7qzIprsYgqh0As-4" source="aH2ZuujqSojjc6NItEgd-2" target="k2swmo7qzIprsYgqh0As-25" edge="1">
          <mxGeometry width="50" height="50" relative="1" as="geometry">
            <mxPoint x="1030" y="590" as="sourcePoint" />
            <mxPoint x="1080" y="540" as="targetPoint" />
          </mxGeometry>
        </mxCell>
        <mxCell id="k2swmo7qzIprsYgqh0As-70" value="" style="ellipse;whiteSpace=wrap;html=1;aspect=fixed;fillColor=#000000;fontSize=15;" parent="1" vertex="1">
          <mxGeometry x="1420" y="960" width="20" height="20" as="geometry" />
        </mxCell>
        <mxCell id="k2swmo7qzIprsYgqh0As-71" value="" style="ellipse;whiteSpace=wrap;html=1;aspect=fixed;fillColor=#000000;fontSize=15;" parent="1" vertex="1">
          <mxGeometry x="1450" y="960" width="20" height="20" as="geometry" />
        </mxCell>
        <mxCell id="k2swmo7qzIprsYgqh0As-72" value="" style="ellipse;whiteSpace=wrap;html=1;aspect=fixed;fillColor=#000000;fontSize=15;" parent="1" vertex="1">
          <mxGeometry x="1480" y="960" width="20" height="20" as="geometry" />
        </mxCell>
        <mxCell id="Qk9qD6PRYy8a2zJd2hO1-21" value="&lt;font style=&quot;font-size: 35px;&quot;&gt;Resource Storage M&lt;br&gt;&lt;/font&gt;" style="swimlane;whiteSpace=wrap;html=1;startSize=60;strokeWidth=4;fillColor=#e1d5e7;strokeColor=#9673a6;" parent="1" vertex="1">
          <mxGeometry x="900" y="-940" width="470" height="730" as="geometry" />
        </mxCell>
        <mxCell id="Qk9qD6PRYy8a2zJd2hO1-24" value="&lt;font style=&quot;font-size: 45px;&quot;&gt;Resource Manager M&lt;br&gt;&lt;/font&gt;" style="swimlane;whiteSpace=wrap;html=1;startSize=60;strokeWidth=4;fillColor=#e1d5e7;strokeColor=#9673a6;" parent="1" vertex="1">
          <mxGeometry x="880" y="-1030" width="610" height="870" as="geometry" />
        </mxCell>
        <mxCell id="Qk9qD6PRYy8a2zJd2hO1-25" value="&lt;font style=&quot;font-size: 60px;&quot;&gt;Central Controller Manager (CCM)&lt;br&gt;&lt;/font&gt;" style="swimlane;whiteSpace=wrap;html=1;startSize=60;strokeWidth=10;fillColor=#fff2cc;strokeColor=#d6b656;" parent="1" vertex="1">
          <mxGeometry x="850" y="-1130" width="1600" height="1010" as="geometry" />
        </mxCell>
        <mxCell id="Qk9qD6PRYy8a2zJd2hO1-26" value="&lt;font style=&quot;font-size: 45px;&quot;&gt;Controller A&lt;br&gt;&lt;/font&gt;" style="swimlane;whiteSpace=wrap;html=1;startSize=60;strokeWidth=4;fillColor=#dae8fc;strokeColor=#6c8ebf;" parent="Qk9qD6PRYy8a2zJd2hO1-25" vertex="1">
          <mxGeometry x="960" y="250" width="520" height="400" as="geometry" />
        </mxCell>
        <mxCell id="Qk9qD6PRYy8a2zJd2hO1-27" value="&lt;div style=&quot;font-size: 45px;&quot;&gt;&lt;font style=&quot;font-size: 45px;&quot;&gt;&lt;b&gt;&lt;font style=&quot;font-size: 45px;&quot;&gt;Loaned Command-&lt;/font&gt;&lt;/b&gt;&lt;/font&gt;&lt;/div&gt;&lt;div style=&quot;font-size: 45px;&quot;&gt;&lt;font style=&quot;font-size: 45px;&quot;&gt;&lt;b&gt;&lt;font style=&quot;font-size: 45px;&quot;&gt;/Stateinterfaces&lt;/font&gt;&lt;/b&gt;&lt;/font&gt;&lt;/div&gt;" style="rounded=1;whiteSpace=wrap;html=1;" parent="Qk9qD6PRYy8a2zJd2hO1-26" vertex="1">
          <mxGeometry x="75" y="100" width="405" height="260" as="geometry" />
        </mxCell>
        <mxCell id="Qk9qD6PRYy8a2zJd2hO1-43" value="&lt;div style=&quot;font-size: 45px;&quot;&gt;&lt;font style=&quot;font-size: 45px;&quot;&gt;&lt;b&gt;&lt;font style=&quot;font-size: 45px;&quot;&gt;Command-&lt;/font&gt;&lt;/b&gt;&lt;/font&gt;&lt;/div&gt;&lt;div style=&quot;font-size: 45px;&quot;&gt;&lt;font style=&quot;font-size: 45px;&quot;&gt;&lt;b&gt;&lt;font style=&quot;font-size: 45px;&quot;&gt;/Stateinterface&lt;/font&gt;&lt;/b&gt;&lt;/font&gt;&lt;/div&gt;&lt;div style=&quot;font-size: 45px;&quot;&gt;&lt;font style=&quot;font-size: 45px;&quot;&gt;&lt;b&gt;&lt;font style=&quot;font-size: 45px;&quot;&gt;imports of&lt;br&gt;&lt;/font&gt;&lt;/b&gt;&lt;/font&gt;&lt;/div&gt;&lt;div style=&quot;font-size: 45px;&quot;&gt;&lt;font style=&quot;font-size: 45px;&quot;&gt;&lt;b&gt;&lt;font style=&quot;font-size: 45px;&quot;&gt;SCMs&lt;/font&gt;&lt;/b&gt;&lt;/font&gt;&lt;/div&gt;" style="rounded=1;whiteSpace=wrap;html=1;" parent="Qk9qD6PRYy8a2zJd2hO1-25" vertex="1">
          <mxGeometry x="80" y="450" width="370" height="310" as="geometry" />
        </mxCell>
        <mxCell id="Qk9qD6PRYy8a2zJd2hO1-48" style="rounded=0;orthogonalLoop=1;jettySize=auto;html=1;strokeWidth=7;fillColor=#fff2cc;strokeColor=#d6b656;" parent="Qk9qD6PRYy8a2zJd2hO1-25" target="Qk9qD6PRYy8a2zJd2hO1-27" edge="1">
          <mxGeometry relative="1" as="geometry">
            <mxPoint x="790" y="380" as="targetPoint" />
            <mxPoint x="640" y="480" as="sourcePoint" />
          </mxGeometry>
        </mxCell>
        <mxCell id="Qk9qD6PRYy8a2zJd2hO1-49" value="&lt;font style=&quot;font-size: 45px;&quot;&gt;&lt;i&gt;Assigne by&lt;br&gt;CCM &lt;br&gt;&lt;/i&gt;&lt;/font&gt;" style="edgeLabel;html=1;align=center;verticalAlign=middle;resizable=0;points=[];" parent="Qk9qD6PRYy8a2zJd2hO1-48" vertex="1" connectable="0">
          <mxGeometry x="0.15" y="6" relative="1" as="geometry">
            <mxPoint x="-35" y="-76" as="offset" />
          </mxGeometry>
        </mxCell>
        <mxCell id="Qk9qD6PRYy8a2zJd2hO1-45" value="" style="endArrow=none;dashed=1;html=1;dashPattern=1 1;strokeWidth=6;rounded=0;entryX=1;entryY=0.5;entryDx=0;entryDy=0;jumpSize=2;jumpStyle=none;targetPerimeterSpacing=0;" parent="1" target="Qk9qD6PRYy8a2zJd2hO1-43" edge="1">
          <mxGeometry width="50" height="50" relative="1" as="geometry">
            <mxPoint x="1490" y="-650" as="sourcePoint" />
            <mxPoint x="1820" y="-290" as="targetPoint" />
          </mxGeometry>
        </mxCell>
        <mxCell id="Qk9qD6PRYy8a2zJd2hO1-57" value="&lt;font style=&quot;font-size: 140px;&quot;&gt;&lt;b&gt;&lt;font style=&quot;font-size: 140px;&quot;&gt;&amp;nbsp;Machine 1&lt;br&gt;&lt;/font&gt;&lt;/b&gt;&lt;/font&gt;" style="text;html=1;align=center;verticalAlign=middle;resizable=0;points=[];autosize=1;strokeColor=none;fillColor=none;" parent="1" vertex="1">
          <mxGeometry x="260" y="350" width="740" height="180" as="geometry" />
        </mxCell>
        <mxCell id="Qk9qD6PRYy8a2zJd2hO1-61" value="&lt;font style=&quot;font-size: 81px;&quot;&gt;&lt;b style=&quot;font-size: 140px;&quot;&gt;&lt;font style=&quot;font-size: 140px;&quot;&gt;&amp;nbsp;Machine M&lt;br&gt;&lt;/font&gt;&lt;/b&gt;&lt;/font&gt;" style="text;html=1;align=center;verticalAlign=middle;resizable=0;points=[];autosize=1;strokeColor=none;fillColor=none;" parent="1" vertex="1">
          <mxGeometry x="1260" y="-1440" width="780" height="180" as="geometry" />
        </mxCell>
        <mxCell id="aH2ZuujqSojjc6NItEgd-38" style="rounded=0;orthogonalLoop=1;jettySize=auto;html=1;entryX=0;entryY=0.5;entryDx=0;entryDy=0;dashed=1;dashPattern=1 1;strokeWidth=10;fillColor=#ffe6cc;strokeColor=#d79b00;endArrow=none;endFill=0;edgeStyle=orthogonalEdgeStyle;" parent="1" source="aH2ZuujqSojjc6NItEgd-2" target="aH2ZuujqSojjc6NItEgd-36" edge="1">
          <mxGeometry relative="1" as="geometry">
            <Array as="points">
              <mxPoint x="635" y="940" />
              <mxPoint x="1190" y="940" />
              <mxPoint x="1190" y="835" />
            </Array>
          </mxGeometry>
        </mxCell>
        <mxCell id="aH2ZuujqSojjc6NItEgd-45" style="rounded=0;orthogonalLoop=1;jettySize=auto;html=1;exitX=1;exitY=0.5;exitDx=0;exitDy=0;entryX=0.5;entryY=1;entryDx=0;entryDy=0;edgeStyle=orthogonalEdgeStyle;fillColor=#e51400;strokeColor=#B20000;strokeWidth=9;" parent="1" source="aH2ZuujqSojjc6NItEgd-36" target="Qk9qD6PRYy8a2zJd2hO1-43" edge="1">
          <mxGeometry relative="1" as="geometry">
            <Array as="points">
              <mxPoint x="1400" y="830" />
              <mxPoint x="1450" y="830" />
              <mxPoint x="1450" y="180" />
              <mxPoint x="1115" y="180" />
            </Array>
          </mxGeometry>
        </mxCell>
        <mxCell id="aH2ZuujqSojjc6NItEgd-36" value="" style="ellipse;whiteSpace=wrap;html=1;aspect=fixed;fillColor=#ffe6cc;strokeColor=#d79b00;" parent="1" vertex="1">
          <mxGeometry x="1370" y="820" width="30" height="30" as="geometry" />
        </mxCell>
        <mxCell id="aH2ZuujqSojjc6NItEgd-46" style="rounded=0;orthogonalLoop=1;jettySize=auto;html=1;exitX=1;exitY=0.5;exitDx=0;exitDy=0;entryX=0.5;entryY=1;entryDx=0;entryDy=0;edgeStyle=orthogonalEdgeStyle;fillColor=#e51400;strokeColor=#B20000;strokeWidth=9;" parent="1" source="g8BdZ8r_Pw-MX2T4Fr7M-32" target="Qk9qD6PRYy8a2zJd2hO1-43" edge="1">
          <mxGeometry relative="1" as="geometry">
            <Array as="points">
              <mxPoint x="3040" y="835" />
              <mxPoint x="3040" y="180" />
              <mxPoint x="1115" y="180" />
            </Array>
          </mxGeometry>
        </mxCell>
        <mxCell id="aH2ZuujqSojjc6NItEgd-47" value="&lt;font style=&quot;font-size: 70px;&quot; color=&quot;#990000&quot;&gt;Export via ROS 2 Service&lt;br&gt;&lt;/font&gt;" style="text;html=1;align=center;verticalAlign=middle;resizable=0;points=[];autosize=1;strokeColor=none;fillColor=none;" parent="1" vertex="1">
          <mxGeometry x="1205" y="90" width="820" height="100" as="geometry" />
        </mxCell>
        <mxCell id="g8BdZ8r_Pw-MX2T4Fr7M-3" value="&lt;font style=&quot;font-size: 50px;&quot;&gt;Resource Storage N&lt;br&gt;&lt;/font&gt;" style="swimlane;whiteSpace=wrap;html=1;startSize=60;strokeWidth=4;fillColor=#e1d5e7;strokeColor=#9673a6;fontSize=60;" parent="1" vertex="1">
          <mxGeometry x="1620" y="870" width="570" height="840" as="geometry" />
        </mxCell>
        <mxCell id="g8BdZ8r_Pw-MX2T4Fr7M-4" style="rounded=0;orthogonalLoop=1;jettySize=auto;html=1;strokeWidth=5;edgeStyle=orthogonalEdgeStyle;fillColor=#ffe6cc;strokeColor=#d79b00;entryX=0.5;entryY=1;entryDx=0;entryDy=0;" parent="1" source="g8BdZ8r_Pw-MX2T4Fr7M-6" target="g8BdZ8r_Pw-MX2T4Fr7M-35" edge="1">
          <mxGeometry relative="1" as="geometry">
            <mxPoint x="2737.5" y="1625" as="targetPoint" />
            <Array as="points">
              <mxPoint x="2330" y="1160" />
              <mxPoint x="2330" y="1310" />
              <mxPoint x="2738" y="1310" />
            </Array>
          </mxGeometry>
        </mxCell>
        <mxCell id="g8BdZ8r_Pw-MX2T4Fr7M-5" value="&lt;font style=&quot;font-size: 45px;&quot;&gt;&lt;i&gt;Assigne by&lt;br&gt;SCM N&lt;br&gt;&lt;/i&gt;&lt;/font&gt;" style="edgeLabel;html=1;align=center;verticalAlign=middle;resizable=0;points=[];labelBackgroundColor=none;" parent="g8BdZ8r_Pw-MX2T4Fr7M-4" vertex="1" connectable="0">
          <mxGeometry x="0.15" y="6" relative="1" as="geometry">
            <mxPoint x="18" y="66" as="offset" />
          </mxGeometry>
        </mxCell>
        <mxCell id="g8BdZ8r_Pw-MX2T4Fr7M-6" value="&lt;font style=&quot;font-size: 50px;&quot;&gt;Resource Manager N&lt;br&gt;&lt;/font&gt;" style="swimlane;whiteSpace=wrap;html=1;startSize=60;strokeWidth=4;fillColor=#e1d5e7;strokeColor=#9673a6;fontSize=50;" parent="1" vertex="1">
          <mxGeometry x="1600" y="780" width="610" height="950" as="geometry" />
        </mxCell>
        <mxCell id="g8BdZ8r_Pw-MX2T4Fr7M-7" value="&lt;font style=&quot;font-size: 60px;&quot;&gt;Sub-Controller Manager N (SCM N)&lt;br style=&quot;font-size: 60px;&quot;&gt;&lt;/font&gt;" style="swimlane;whiteSpace=wrap;html=1;startSize=60;strokeWidth=10;fillColor=#ffe6cc;strokeColor=#d79b00;fontSize=60;" parent="1" vertex="1">
          <mxGeometry x="1550" y="620" width="1450" height="1150" as="geometry" />
        </mxCell>
        <mxCell id="g8BdZ8r_Pw-MX2T4Fr7M-10" value="" style="rounded=0;whiteSpace=wrap;html=1;rotation=-30;" parent="g8BdZ8r_Pw-MX2T4Fr7M-7" vertex="1">
          <mxGeometry x="320" y="820" width="30" height="10" as="geometry" />
        </mxCell>
        <mxCell id="g8BdZ8r_Pw-MX2T4Fr7M-11" value="" style="rounded=0;whiteSpace=wrap;html=1;rotation=-30;" parent="g8BdZ8r_Pw-MX2T4Fr7M-7" vertex="1">
          <mxGeometry x="300" y="790" width="30" height="10" as="geometry" />
        </mxCell>
        <mxCell id="g8BdZ8r_Pw-MX2T4Fr7M-12" value="" style="shape=cylinder3;whiteSpace=wrap;html=1;boundedLbl=1;backgroundOutline=1;size=15;" parent="g8BdZ8r_Pw-MX2T4Fr7M-7" vertex="1">
          <mxGeometry x="161.25" y="970" width="67.5" height="40" as="geometry" />
        </mxCell>
        <mxCell id="g8BdZ8r_Pw-MX2T4Fr7M-13" value="" style="rounded=0;whiteSpace=wrap;html=1;rotation=-30;direction=south;" parent="g8BdZ8r_Pw-MX2T4Fr7M-7" vertex="1">
          <mxGeometry x="220" y="830" width="100" height="20" as="geometry" />
        </mxCell>
        <mxCell id="g8BdZ8r_Pw-MX2T4Fr7M-14" value="" style="rounded=0;whiteSpace=wrap;html=1;rotation=15;" parent="g8BdZ8r_Pw-MX2T4Fr7M-7" vertex="1">
          <mxGeometry x="200" y="860" width="20" height="110" as="geometry" />
        </mxCell>
        <mxCell id="g8BdZ8r_Pw-MX2T4Fr7M-15" value="" style="ellipse;whiteSpace=wrap;html=1;aspect=fixed;" parent="g8BdZ8r_Pw-MX2T4Fr7M-7" vertex="1">
          <mxGeometry x="180" y="960" width="30" height="30" as="geometry" />
        </mxCell>
        <mxCell id="g8BdZ8r_Pw-MX2T4Fr7M-16" value="" style="ellipse;whiteSpace=wrap;html=1;aspect=fixed;" parent="g8BdZ8r_Pw-MX2T4Fr7M-7" vertex="1">
          <mxGeometry x="210" y="850" width="30" height="30" as="geometry" />
        </mxCell>
        <mxCell id="g8BdZ8r_Pw-MX2T4Fr7M-17" value="" style="rounded=0;whiteSpace=wrap;html=1;rotation=60;" parent="g8BdZ8r_Pw-MX2T4Fr7M-7" vertex="1">
          <mxGeometry x="290" y="810" width="50" height="10" as="geometry" />
        </mxCell>
        <mxCell id="g8BdZ8r_Pw-MX2T4Fr7M-18" value="" style="endArrow=classic;startArrow=classic;html=1;rounded=1;" parent="g8BdZ8r_Pw-MX2T4Fr7M-7" edge="1">
          <mxGeometry width="50" height="50" relative="1" as="geometry">
            <mxPoint x="200" y="860" as="sourcePoint" />
            <mxPoint x="220" y="840" as="targetPoint" />
            <Array as="points">
              <mxPoint x="200" y="840" />
            </Array>
          </mxGeometry>
        </mxCell>
        <mxCell id="g8BdZ8r_Pw-MX2T4Fr7M-19" value="" style="endArrow=classic;startArrow=classic;html=1;rounded=1;" parent="g8BdZ8r_Pw-MX2T4Fr7M-7" edge="1">
          <mxGeometry width="50" height="50" relative="1" as="geometry">
            <mxPoint x="158.75" y="970" as="sourcePoint" />
            <mxPoint x="168.75" y="940" as="targetPoint" />
            <Array as="points">
              <mxPoint x="150" y="950" />
            </Array>
          </mxGeometry>
        </mxCell>
        <mxCell id="g8BdZ8r_Pw-MX2T4Fr7M-20" value="" style="endArrow=classic;startArrow=classic;html=1;rounded=1;" parent="g8BdZ8r_Pw-MX2T4Fr7M-7" edge="1">
          <mxGeometry width="50" height="50" relative="1" as="geometry">
            <mxPoint x="150" y="1000" as="sourcePoint" />
            <mxPoint x="150" y="980" as="targetPoint" />
            <Array as="points">
              <mxPoint x="140" y="990" />
            </Array>
          </mxGeometry>
        </mxCell>
        <mxCell id="g8BdZ8r_Pw-MX2T4Fr7M-21" value="" style="endArrow=classic;startArrow=classic;html=1;rounded=0;" parent="g8BdZ8r_Pw-MX2T4Fr7M-7" edge="1">
          <mxGeometry width="50" height="50" relative="1" as="geometry">
            <mxPoint x="360" y="810" as="sourcePoint" />
            <mxPoint x="340" y="775" as="targetPoint" />
          </mxGeometry>
        </mxCell>
        <mxCell id="g8BdZ8r_Pw-MX2T4Fr7M-22" style="edgeStyle=orthogonalEdgeStyle;rounded=0;orthogonalLoop=1;jettySize=auto;html=1;exitX=1;exitY=0.5;exitDx=0;exitDy=0;entryX=0.38;entryY=1.036;entryDx=0;entryDy=0;entryPerimeter=0;strokeWidth=6;" parent="g8BdZ8r_Pw-MX2T4Fr7M-7" source="g8BdZ8r_Pw-MX2T4Fr7M-23" target="g8BdZ8r_Pw-MX2T4Fr7M-25" edge="1">
          <mxGeometry relative="1" as="geometry">
            <Array as="points">
              <mxPoint x="420" y="845" />
              <mxPoint x="420" y="590" />
              <mxPoint x="266" y="590" />
            </Array>
          </mxGeometry>
        </mxCell>
        <mxCell id="g8BdZ8r_Pw-MX2T4Fr7M-23" value="&lt;font style=&quot;font-size: 45px;&quot;&gt;&lt;b&gt;System N&lt;br&gt;&lt;/b&gt;&lt;/font&gt;" style="swimlane;whiteSpace=wrap;html=1;startSize=60;" parent="g8BdZ8r_Pw-MX2T4Fr7M-7" vertex="1">
          <mxGeometry x="90" y="670" width="310" height="350" as="geometry" />
        </mxCell>
        <mxCell id="g8BdZ8r_Pw-MX2T4Fr7M-24" value="&lt;font style=&quot;font-size: 45px;&quot;&gt;Robot N&lt;br&gt;&lt;/font&gt;" style="text;html=1;strokeColor=none;fillColor=none;align=center;verticalAlign=middle;whiteSpace=wrap;rounded=0;" parent="g8BdZ8r_Pw-MX2T4Fr7M-23" vertex="1">
          <mxGeometry x="60" y="80" width="190" height="30" as="geometry" />
        </mxCell>
        <mxCell id="g8BdZ8r_Pw-MX2T4Fr7M-25" value="&lt;div style=&quot;font-size: 50px;&quot;&gt;&lt;font style=&quot;font-size: 50px;&quot;&gt;&lt;b&gt;&lt;font style=&quot;font-size: 50px;&quot;&gt;Command-&lt;/font&gt;&lt;/b&gt;&lt;/font&gt;&lt;/div&gt;&lt;div style=&quot;font-size: 50px;&quot;&gt;&lt;font style=&quot;font-size: 50px;&quot;&gt;&lt;b&gt;&lt;font style=&quot;font-size: 50px;&quot;&gt;/Stateinterfaces&lt;/font&gt;&lt;/b&gt;&lt;/font&gt;&lt;/div&gt;" style="rounded=1;whiteSpace=wrap;html=1;" parent="g8BdZ8r_Pw-MX2T4Fr7M-7" vertex="1">
          <mxGeometry x="110" y="330" width="410" height="160" as="geometry" />
        </mxCell>
        <mxCell id="g8BdZ8r_Pw-MX2T4Fr7M-26" value="&lt;font size=&quot;1&quot;&gt;&lt;i style=&quot;font-size: 45px;&quot;&gt;Export&lt;/i&gt;&lt;/font&gt;" style="text;html=1;align=center;verticalAlign=middle;resizable=0;points=[];autosize=1;strokeColor=none;fillColor=none;strokeWidth=6;" parent="g8BdZ8r_Pw-MX2T4Fr7M-7" vertex="1">
          <mxGeometry x="440" y="670" width="150" height="70" as="geometry" />
        </mxCell>
        <mxCell id="g8BdZ8r_Pw-MX2T4Fr7M-27" value="&lt;font style=&quot;font-size: 45px;&quot;&gt;&lt;i&gt;Exported by&lt;br&gt;SCM N&lt;br&gt;&lt;/i&gt;&lt;/font&gt;" style="edgeLabel;html=1;align=center;verticalAlign=middle;resizable=0;points=[];labelBackgroundColor=none;" parent="g8BdZ8r_Pw-MX2T4Fr7M-7" vertex="1" connectable="0">
          <mxGeometry x="1019.9985714285722" y="140" as="geometry">
            <mxPoint x="-73" y="-7" as="offset" />
          </mxGeometry>
        </mxCell>
        <mxCell id="g8BdZ8r_Pw-MX2T4Fr7M-34" value="&lt;font style=&quot;font-size: 50px;&quot;&gt;Controller B&lt;br&gt;&lt;/font&gt;" style="swimlane;whiteSpace=wrap;html=1;startSize=60;strokeWidth=4;fillColor=#dae8fc;strokeColor=#6c8ebf;" parent="g8BdZ8r_Pw-MX2T4Fr7M-7" vertex="1">
          <mxGeometry x="905" y="250" width="520" height="380" as="geometry" />
        </mxCell>
        <mxCell id="g8BdZ8r_Pw-MX2T4Fr7M-35" value="&lt;div style=&quot;font-size: 50px;&quot;&gt;&lt;font style=&quot;font-size: 50px;&quot;&gt;&lt;b&gt;&lt;font style=&quot;font-size: 50px;&quot;&gt;Loaned Command-&lt;/font&gt;&lt;/b&gt;&lt;/font&gt;&lt;/div&gt;&lt;div style=&quot;font-size: 50px;&quot;&gt;&lt;font style=&quot;font-size: 50px;&quot;&gt;&lt;b&gt;&lt;font style=&quot;font-size: 50px;&quot;&gt;/Stateinterfaces&lt;/font&gt;&lt;/b&gt;&lt;/font&gt;&lt;/div&gt;" style="rounded=1;whiteSpace=wrap;html=1;" parent="g8BdZ8r_Pw-MX2T4Fr7M-34" vertex="1">
          <mxGeometry x="75" y="100" width="415" height="230" as="geometry" />
        </mxCell>
        <mxCell id="g8BdZ8r_Pw-MX2T4Fr7M-31" value="" style="ellipse;whiteSpace=wrap;html=1;aspect=fixed;fillColor=#e1d5e7;strokeColor=#9673a6;" parent="g8BdZ8r_Pw-MX2T4Fr7M-7" vertex="1">
          <mxGeometry x="650" y="360" width="30" height="30" as="geometry" />
        </mxCell>
        <mxCell id="g8BdZ8r_Pw-MX2T4Fr7M-28" value="" style="endArrow=none;dashed=1;html=1;dashPattern=1 1;strokeWidth=6;rounded=0;entryX=1;entryY=0.5;entryDx=0;entryDy=0;jumpSize=2;jumpStyle=none;targetPerimeterSpacing=0;" parent="g8BdZ8r_Pw-MX2T4Fr7M-7" source="g8BdZ8r_Pw-MX2T4Fr7M-31" target="g8BdZ8r_Pw-MX2T4Fr7M-25" edge="1">
          <mxGeometry width="50" height="50" relative="1" as="geometry">
            <mxPoint x="1030" y="590" as="sourcePoint" />
            <mxPoint x="1080" y="540" as="targetPoint" />
          </mxGeometry>
        </mxCell>
        <mxCell id="C5OK1jKq3YbDkTMviwv4-3" value="&lt;font style=&quot;font-size: 45px;&quot;&gt;Driver for &lt;br&gt;Robot N&lt;br&gt;&lt;/font&gt;" style="ellipse;whiteSpace=wrap;html=1;strokeWidth=3;fillColor=none;" vertex="1" parent="g8BdZ8r_Pw-MX2T4Fr7M-7">
          <mxGeometry x="850" y="850" width="430" height="210" as="geometry" />
        </mxCell>
        <mxCell id="g8BdZ8r_Pw-MX2T4Fr7M-30" style="rounded=0;orthogonalLoop=1;jettySize=auto;html=1;entryX=0;entryY=0.5;entryDx=0;entryDy=0;dashed=1;dashPattern=1 1;strokeWidth=10;fillColor=#ffe6cc;strokeColor=#d79b00;endArrow=none;endFill=0;edgeStyle=orthogonalEdgeStyle;" parent="1" source="g8BdZ8r_Pw-MX2T4Fr7M-31" target="g8BdZ8r_Pw-MX2T4Fr7M-32" edge="1">
          <mxGeometry relative="1" as="geometry">
            <Array as="points">
              <mxPoint x="2280" y="995" />
              <mxPoint x="2280" y="835" />
            </Array>
          </mxGeometry>
        </mxCell>
        <mxCell id="g8BdZ8r_Pw-MX2T4Fr7M-32" value="" style="ellipse;whiteSpace=wrap;html=1;aspect=fixed;fillColor=#ffe6cc;strokeColor=#d79b00;" parent="1" vertex="1">
          <mxGeometry x="2980" y="820" width="30" height="30" as="geometry" />
        </mxCell>
        <mxCell id="g8BdZ8r_Pw-MX2T4Fr7M-45" value="&lt;font style=&quot;font-size: 140px;&quot;&gt;&lt;b&gt;&lt;font style=&quot;font-size: 140px;&quot;&gt;&amp;nbsp;Machine N&lt;br&gt;&lt;/font&gt;&lt;/b&gt;&lt;/font&gt;" style="text;html=1;align=center;verticalAlign=middle;resizable=0;points=[];autosize=1;strokeColor=none;fillColor=none;" parent="1" vertex="1">
          <mxGeometry x="1890" y="350" width="760" height="180" as="geometry" />
        </mxCell>
        <mxCell id="C5OK1jKq3YbDkTMviwv4-6" value="&lt;font style=&quot;font-size: 45px;&quot;&gt;Driver for &lt;br&gt;Robot 1&lt;br&gt;&lt;/font&gt;" style="ellipse;whiteSpace=wrap;html=1;strokeWidth=3;fillColor=none;" vertex="1" parent="1">
          <mxGeometry x="780" y="1460" width="430" height="210" as="geometry" />
        </mxCell>
      </root>
    </mxGraphModel>
  </diagram>
</mxfile>
